<!--?xml version="1.0" encoding="utf-8"?-->
<!-- Generator: Adobe Illustrator 18.1.1, SVG Export Plug-In . SVG Version: 6.00 Build 0)  -->

<svg version="1.1" id="_x32_" xmlns="http://www.w3.org/2000/svg" xmlns:xlink="http://www.w3.org/1999/xlink" x="0px" y="0px" viewBox="0 0 512 512" style="width: 256px; height: 256px; opacity: 1;" xml:space="preserve">
<style type="text/css">
	.st0{fill:#4B4B4B;}
</style>
<g>
	<path class="st0" d="M416.305,232.076c-0.056,0-0.094,0-0.131,0c0.056-1.594,0.131-3.178,0.131-4.791
		c0-76.637-62.136-138.762-138.771-138.762c-71.786,0-130.85,54.521-138.031,124.419c-10.066-3.113-20.755-4.791-31.841-4.791
		C48.207,208.152,0,256.354,0,315.814s48.207,107.662,107.662,107.662h308.643c52.843,0,95.695-42.842,95.695-95.704
		C512,274.919,469.148,232.076,416.305,232.076z M303.452,318.517c-5.648,24.903-30.41,40.522-55.318,34.874
		c-24.908-5.648-40.522-30.41-34.88-55.313c5.643-24.912,65.155-78.305,65.155-78.305S309.09,293.605,303.452,318.517z" style="fill: rgb(75, 75, 75);"></path>
</g>
</svg>
